{"title":"Anonymous.2011.BRRip.XviD.Ac3.Feel-Free","uid":6970168,"size":1197005598,"categoryP":"video","categoryS":"movies","magnet":"?xt=urn:btih:d4900291921750ba37b6ba2c69c62aa5a6c728bb&amp;dn=Anonymous.2011.BRRip.XviD.Ac3.Feel-Free&amp;tr=udp%3A%2F%2Ftracker.openbittorrent.com%3A80&amp;tr=udp%3A%2F%2Fopen.demonii.com%3A1337&amp;tr=udp%3A%2F%2Ftracker.coppersurfer.tk%3A6969&amp;tr=udp%3A%2F%2Fexodus.desync.com%3A6969","seeders":0,"leechers":1,"uploader":"HeroMaster","files":-1,"time":1327067269,"description":"Anonymous.2011.BRRip.XviD.Ac3.Feel-Free\n\n\nGenre:Drama | Thriller\nLanguage:English\nIMDb:http://www.imdb.com/title/tt1521197/\nSource:1080p.BluRay.x264-SPARKS Thanks!\nEncoder:Tony\n\n\nFormat : AVI\nFormat/Info : Audio Video Interleave\nFile size : 1.11 GiB\nDuration : 2h 9mn\nOverall bit rate : 1 227 Kbps\n\n\nVideo\nID : 0\nFormat : MPEG-4 Visual\nFormat profile : Advanced Simple@L5\nFormat settings, BVOP : 1\nFormat settings, QPel : No\nFormat settings, GMC : No warppoints\nFormat settings, Matrix : Default (H.263)\nCodec ID : XVID\nCodec ID/Hint : XviD\nDuration : 2h 9mn\nBit rate : 1 026 Kbps\nWidth : 640 pixels\nHeight : 272 pixels\nDisplay aspect ratio : 2.35:1\nFrame rate : 23.976 fps\nColor space : YUV\nChroma subsampling : 4:2:0\nBit depth : 8 bits\nScan type : Progressive\nCompression mode : Lossy\nBits/(Pixel*Frame) : 0.246\nStream size : 954 MiB (84%)\nWriting library : XviD 1.2.1 (UTC 2008-12-04)\n\n\nAudio\nID : 1\nFormat : AC-3\nFormat/Info : Audio Coding 3\nMode extension : CM (complete main)\nCodec ID : 2000\nDuration : 2h 9mn\nBit rate mode : Constant\nBit rate : 192 Kbps\nChannel(s) : 6 channels\nChannel positions : Front: L C R, Side: L R, LFE\nSampling rate : 48.0 KHz\nBit depth : 16 bits\nCompression mode : Lossy\nStream size : 178 MiB (16%)\nAlignment : Aligned on interleaves\nInterleave, duration : 42 ms (1.00 video frame)\nInterleave, preload duration : 512 ms\n\n\nPlot:\n\nA political thriller advancing the theory that it was in fact Edward De Vere, \nEarl of Oxford who penned Shakespeare's plays; set against the backdrop of the succession of Queen Elizabeth I, and the Essex Rebellion against her.\n\n\nPoster:\n\n &lt;a href=&quot;\nhttp://i.imgur.com/wxlwV.jpg&quot; rel=&quot;nofollow&quot; target=&quot;_NEW&quot;&gt;\nhttp://i.imgur.com/wxlwV.jpg&lt;/a&gt;\n\n\nScreens:\n\n &lt;a href=&quot;\nhttp://i.imgur.com/p5g3S.png&quot; rel=&quot;nofollow&quot; target=&quot;_NEW&quot;&gt;\nhttp://i.imgur.com/p5g3S.png&lt;/a&gt;\n\n &lt;a href=&quot;\nhttp://i.imgur.com/d40Ry.png&quot; rel=&quot;nofollow&quot; target=&quot;_NEW&quot;&gt;\nhttp://i.imgur.com/d40Ry.png&lt;/a&gt;\n\n &lt;a href=&quot;\nhttp://i.imgur.com/04aMW.png&quot; rel=&quot;nofollow&quot; target=&quot;_NEW&quot;&gt;\nhttp://i.imgur.com/04aMW.png&lt;/a&gt;\n\n\nENJOY!","torrent":{"xt":"urn:btih:d4900291921750ba37b6ba2c69c62aa5a6c728bb","amp;dn":"Anonymous.2011.BRRip.XviD.Ac3.Feel-Free","amp;tr":["udp%3A%2F%2Ftracker.openbittorrent.com%3A80","udp%3A%2F%2Fopen.demonii.com%3A1337","udp%3A%2F%2Ftracker.coppersurfer.tk%3A6969","udp%3A%2F%2Fexodus.desync.com%3A6969"],"infoHash":"d4900291921750ba37b6ba2c69c62aa5a6c728bb","infoHashBuffer":{"type":"Buffer","data":[212,144,2,145,146,23,80,186,55,182,186,44,105,198,42,165,166,199,40,187]},"announce":[],"urlList":[]}}